<?xml version="1.0" encoding="UTF-8"?>
<svg version="1.1" xmlns="http://www.w3.org/2000/svg" width="1748" height="201">
<path d="M0 0 C8.91 0 17.82 0 27 0 C27.33 18.81 27.66 37.62 28 57 C31.63 54.69 35.26 52.38 39 50 C56.33041636 42.71334766 75.42851281 41.36230138 93.1875 48.1875 C107.87924668 54.7661803 115.8974616 66.56575762 122 81 C124.94613451 90.04269754 126.12999414 99.12337386 126.11352539 108.609375 C126.11367142 109.32255386 126.11381744 110.03573273 126.1139679 110.77052307 C126.11327853 113.09704776 126.10553253 115.42348953 126.09765625 117.75 C126.09578859 119.3752437 126.09436633 121.00048796 126.09336853 122.62573242 C126.08957073 126.88028549 126.07976413 131.13480382 126.06866455 135.38934326 C126.05839127 139.74002615 126.05385829 144.0907147 126.04882812 148.44140625 C126.03813913 156.96095513 126.02056482 165.48046923 126 174 C117.09 174 108.18 174 99 174 C98.97812622 170.67844849 98.97812622 170.67844849 98.95581055 167.28979492 C98.90526046 159.93758509 98.83863056 152.58558252 98.76428509 145.23357677 C98.71973699 140.78016693 98.68044749 136.3268453 98.65356445 131.87329102 C98.62737505 127.56777542 98.58686474 123.26260215 98.53681374 118.95730019 C98.52024997 117.32248537 98.50867087 115.68761148 98.50238609 114.05272484 C98.44343921 100.11616301 97.5065862 87.5065862 87.1875 77.1875 C80.83578323 72.82847869 74.86938788 71.43504579 67.3125 71.5 C66.53011963 71.50572021 65.74773926 71.51144043 64.94165039 71.51733398 C53.48639279 71.86531511 44.37032609 76.32979412 36 84 C35.28585937 84.64582031 34.57171875 85.29164062 33.8359375 85.95703125 C19.96508725 99.16619783 8.82459463 115.98741015 -1.125 132.25 C-12.08263504 150.07163843 -25.7862713 168.52929816 -47 174 C-63.77059467 177.73069837 -82.57442115 175.53100811 -97.37890625 166.75390625 C-112.41749156 156.69082905 -123.17420428 143.40090425 -127.9375 125.75 C-131.33569013 108.2705595 -129.1039829 90.5812403 -120.10546875 75.09765625 C-109.69840313 59.78633336 -95.17237006 49.19362386 -77 45 C-59.05116329 42.00852722 -41.24084307 44.96908696 -26.125 55.375 C-18.06727744 61.14695319 -10.56313721 68.03883909 -6 77 C-6.13696289 78.94360352 -6.13696289 78.94360352 -7 81 C-9.00952148 82.64746094 -9.00952148 82.64746094 -11.62109375 84.234375 C-12.55630859 84.80800781 -13.49152344 85.38164063 -14.45507812 85.97265625 C-15.43927734 86.55917969 -16.42347656 87.14570312 -17.4375 87.75 C-18.41783203 88.35199219 -19.39816406 88.95398438 -20.40820312 89.57421875 C-27.69920103 94 -27.69920103 94 -30 94 C-30.97265625 92.53125 -30.97265625 92.53125 -32.0625 90.5 C-37.38049272 81.70425837 -45.18020891 76.40109768 -54.8828125 73.421875 C-64.93502832 71.41885045 -74.46825283 73.10629534 -83.21484375 78.3203125 C-91.75098877 84.31691341 -97.85682071 91.63918653 -100 102 C-101.19606443 114.34289174 -99.58755768 124.33371918 -91.62109375 134.1875 C-84.67906894 141.94918557 -76.34790325 146.19463642 -65.89453125 147.203125 C-56.18043172 147.42182893 -48.06675498 144.74308681 -41 138 C-34.11200861 130.8308661 -28.88542457 122.87622395 -23.68823242 114.44189453 C-20.02540707 108.52669268 -16.14726506 102.819286 -12.0625 97.1875 C-11.26525513 96.08607666 -11.26525513 96.08607666 -10.4519043 94.96240234 C-8.22884904 91.92440284 -6.08636729 89.08809956 -3.4430542 86.39176941 C-0.44310624 82.77571731 -0.28840935 79.26307047 -0.34057617 74.69970703 C-0.33009247 73.88928452 -0.31960876 73.078862 -0.30880737 72.24388123 C-0.28014637 69.58146456 -0.28633809 66.92035524 -0.29296875 64.2578125 C-0.27984824 62.4054909 -0.26454293 60.5531836 -0.24714661 58.70089722 C-0.20732491 53.83797648 -0.19710798 48.97543027 -0.19311523 44.11236572 C-0.18377847 39.14510762 -0.1463615 34.17806908 -0.11132812 29.2109375 C-0.04678074 19.47391682 -0.0161139 9.73722143 0 0 Z " fill="#212020" transform="translate(1622,26)"/>
<path d="M0 0 C15.85602788 13.52497324 22.52773071 31.67887695 25.05078125 51.86328125 C25.05078125 58.79328125 25.05078125 65.72328125 25.05078125 72.86328125 C-9.59921875 72.86328125 -44.24921875 72.86328125 -79.94921875 72.86328125 C-75.41083821 91.04536811 -75.41083821 91.04536811 -62.94921875 103.86328125 C-52.36362245 109.5004738 -41.43359414 109.85082506 -29.94921875 106.86328125 C-20.40692177 103.36711194 -15.18987876 97.27079119 -9.94921875 88.86328125 C-2.38534905 90.19487461 4.85133721 92.195898 12.17578125 94.48828125 C13.75359375 94.97554687 13.75359375 94.97554687 15.36328125 95.47265625 C17.92718111 96.26513439 20.48959941 97.06207133 23.05078125 97.86328125 C20.77160081 110.29693246 10.52422343 120.89532132 0.625 128.203125 C-17.86457353 140.12735679 -38.70475491 143.56241038 -60.21728516 139.2734375 C-78.80386257 135.16245913 -94.64221028 124.15369689 -104.94140625 108.2265625 C-116.54750447 88.78521899 -118.63958741 64.75166834 -113.94921875 42.86328125 C-109.00881106 24.3367524 -100.0048965 7.98289208 -83.59375 -2.61328125 C-57.66953713 -17.54746592 -24.66139834 -17.86726476 0 0 Z M-70.26171875 26.86328125 C-74.98005066 32.54824911 -78.94921875 40.3587109 -78.94921875 47.86328125 C-55.84921875 47.86328125 -32.74921875 47.86328125 -8.94921875 47.86328125 C-10.99590312 37.62985941 -13.34601133 27.53828792 -22.09375 20.97265625 C-37.01223281 12.0529739 -58.08509791 14.4125151 -70.26171875 26.86328125 Z " fill="#212121" transform="translate(717.94921875,57.13671875)"/>
<path d="M0 0 C14.55699075 12.11980762 21.97300437 30.24106233 23.93701172 48.75390625 C24.59412566 56.74014625 24.98075006 64.2131559 23.65966797 72.13964844 C-10.66033203 72.13964844 -44.98033203 72.13964844 -80.34033203 72.13964844 C-76.3525589 89.93120838 -76.3525589 89.93120838 -64.84033203 102.70214844 C-55.37906898 108.25445795 -44.90143127 108.98027871 -34.29736328 106.92480469 C-26.14691683 104.7606835 -19.58446519 100.7822171 -14.34033203 94.13964844 C-12.42770817 90.90688217 -12.42770817 90.90688217 -11.34033203 88.13964844 C-4.2877073 88.81181942 2.28934564 90.9900142 9.03466797 93.07714844 C10.83484375 93.61758789 10.83484375 93.61758789 12.67138672 94.16894531 C13.80962891 94.51892578 14.94787109 94.86890625 16.12060547 95.22949219 C17.16007324 95.54781006 18.19954102 95.86612793 19.27050781 96.1940918 C21.65966797 97.13964844 21.65966797 97.13964844 22.65966797 99.13964844 C15.31968678 116.82931022 0.98743712 128.88524679 -16.34033203 136.13964844 C-36.72057769 143.14777337 -59.96901238 141.54367719 -79.34033203 132.13964844 C-96.29786765 122.63154336 -107.00919057 109.00627077 -113.33251953 90.72167969 C-119.8963677 67.3920333 -118.06771849 41.86781807 -106.34423828 20.56542969 C-103.93464123 16.44609905 -101.52710152 12.69173053 -98.34033203 9.13964844 C-97.70869141 8.41648437 -97.07705078 7.69332031 -96.42626953 6.94824219 C-72.41559968 -18.85231396 -27.57309086 -21.65118922 0 0 Z M-70.53173828 25.45214844 C-76.24223553 32.68754827 -77.3572302 37.44456747 -80.34033203 47.13964844 C-57.24033203 47.13964844 -34.14033203 47.13964844 -10.34033203 47.13964844 C-11.19466686 39.45063495 -11.96937274 35.56515929 -15.34033203 29.13964844 C-15.87658203 28.08777344 -16.41283203 27.03589844 -16.96533203 25.95214844 C-23.07427812 18.71787017 -31.32132702 15.84411062 -40.48095703 14.92480469 C-51.1245771 14.44622465 -63.0828303 17.59162522 -70.53173828 25.45214844 Z " fill="#212121" transform="translate(428.34033203125,57.8603515625)"/>
<path d="M0 0 C8.24132878 7.99893676 14.4931156 18.5338719 15.11523533 30.25112629 C15.11431354 31.05032081 15.11339174 31.84951532 15.11244202 32.67292786 C15.11450401 34.05895203 15.11450401 34.05895203 15.11660767 35.47297668 C15.11301239 36.4742308 15.10941711 37.47548492 15.10571289 38.50708008 C15.10585892 39.5709494 15.10600494 40.63481873 15.1061554 41.73092651 C15.1054595 45.24251352 15.09768218 48.75404728 15.08984375 52.265625 C15.08797842 54.70228547 15.08655506 57.13894632 15.08555603 59.5756073 C15.08173989 65.98547401 15.07191728 72.39531803 15.06085205 78.80517578 C15.05061854 85.34732761 15.04605425 91.8894831 15.04101562 98.43164062 C15.03029423 111.26563657 15.0127047 124.09960972 14.9921875 136.93359375 C5.4221875 136.93359375 -4.1478125 136.93359375 -14.0078125 136.93359375 C-14.3378125 131.65359375 -14.6678125 126.37359375 -15.0078125 120.93359375 C-15.9359375 121.94421875 -16.8640625 122.95484375 -17.8203125 123.99609375 C-30.28646507 136.38699792 -46.20710573 140.83714835 -63.3828125 141.24609375 C-78.67179753 140.99571119 -91.52887747 137.09221338 -102.7421875 126.53125 C-111.80187545 116.14384916 -113.9007645 103.3729031 -113.203125 90.06542969 C-112.24241681 79.57929983 -107.57751367 70.0732188 -100.0078125 62.80859375 C-78.38090221 45.83617068 -43.48613993 43.1555513 -17.0078125 40.93359375 C-20.00119033 29.54060945 -20.00119033 29.54060945 -28.17578125 21.69140625 C-37.96963554 17.39455641 -50.1110102 17.21668491 -60.1953125 20.68359375 C-67.80579354 23.99950682 -72.20395723 27.55320525 -76.0078125 34.93359375 C-76.3378125 35.92359375 -76.6678125 36.91359375 -77.0078125 37.93359375 C-84.0297913 36.49579457 -90.75797417 34.52677407 -97.5703125 32.30859375 C-98.57900391 31.98375 -99.58769531 31.65890625 -100.62695312 31.32421875 C-103.08842942 30.53094677 -105.5486528 29.73401232 -108.0078125 28.93359375 C-106.59474427 17.00300504 -98.68692 6.60280183 -89.734375 -0.99609375 C-66.70111704 -18.36421383 -22.48981372 -19.15341278 0 0 Z M-36.39770508 71.27734375 C-38.53760167 71.67747724 -40.67968636 72.06374722 -42.82226562 72.44921875 C-61.90019579 75.83843252 -61.90019579 75.83843252 -77.4453125 86.62109375 C-80.76884729 91.53992523 -80.57679168 96.11186477 -80.0078125 101.93359375 C-77.54884532 107.4662699 -73.32023589 110.32926119 -68.0078125 112.93359375 C-59.31454903 115.87450629 -48.27172895 114.63762421 -40.0078125 110.93359375 C-30.35379979 105.88828057 -23.38643564 98.46330213 -19.69921875 88.1953125 C-19.35697266 87.07576172 -19.35697266 87.07576172 -19.0078125 85.93359375 C-18.71390625 85.00740234 -18.71390625 85.00740234 -18.4140625 84.0625 C-17.845825 81.08471696 -17.91503327 78.21151651 -17.9453125 75.18359375 C-17.95433594 74.013125 -17.96335937 72.84265625 -17.97265625 71.63671875 C-17.98425781 70.7446875 -17.99585938 69.85265625 -18.0078125 68.93359375 C-24.25561334 68.71127846 -30.28866525 70.12909544 -36.39770508 71.27734375 Z " fill="#212121" transform="translate(1212.0078125,57.06640625)"/>
<path d="M0 0 C13.61755162 10.15685053 20.88454118 24.76981629 23.62464905 41.39862061 C25.28259664 52.88906891 25.13117563 64.40648144 25.09765625 75.984375 C25.09578749 77.89536502 25.09436575 79.80635552 25.09336853 81.71734619 C25.08957941 86.70834717 25.07978056 91.6993183 25.06866455 96.69030762 C25.05837227 101.79874264 25.05385428 106.90718256 25.04882812 112.015625 C25.0381545 122.01043178 25.02058757 132.00520872 25 142 C13.78 142 2.56 142 -9 142 C-9.03738281 136.410625 -9.07476562 130.82125 -9.11328125 125.0625 C-9.14361095 121.48955441 -9.17479133 117.91665564 -9.20898438 114.34375 C-9.26299818 108.69143243 -9.31411728 103.03920746 -9.34643555 97.38671875 C-9.37273446 92.82183938 -9.41331712 88.25727695 -9.46318626 83.69259644 C-9.47967749 81.96422311 -9.49130079 80.2357952 -9.49761391 78.50735474 C-9.56492401 61.7492249 -9.98060451 42.55560776 -22.625 29.9375 C-28.98403954 24.93326543 -38.05512113 23.13328594 -46 24 C-55.69366838 25.75716043 -62.49597528 29.18099756 -68.3125 37.25 C-74.19999316 46.76918051 -75.11995594 57.48938875 -75.20532227 68.43554688 C-75.21522186 69.23650787 -75.22512146 70.03746887 -75.23532104 70.86270142 C-75.26663264 73.48135534 -75.291572 76.10002734 -75.31640625 78.71875 C-75.33700206 80.54578086 -75.35799918 82.37280725 -75.37937927 84.1998291 C-75.43432881 88.98698271 -75.48385663 93.77417736 -75.53222656 98.56140137 C-75.58264075 103.4550335 -75.63822241 108.3486067 -75.69335938 113.2421875 C-75.80060881 122.82807632 -75.90164816 132.41401576 -76 142 C-86.89 142 -97.78 142 -109 142 C-109 93.82 -109 45.64 -109 -4 C-99.43 -4 -89.86 -4 -80 -4 C-79.505 2.93 -79.505 2.93 -79 10 C-77.576875 8.453125 -77.576875 8.453125 -76.125 6.875 C-57.54326745 -11.52091523 -21.78838774 -13.94456815 0 0 Z " fill="#212121" transform="translate(172,52)"/>
<path d="M0 0 C0.64710938 0.52078125 1.29421875 1.0415625 1.9609375 1.578125 C8.85187102 7.75190255 14.79560444 18.02409099 17 27 C16.71500743 28.67560978 16.38813695 30.3452376 16 32 C11.92624972 33.14425631 7.85112696 34.28344567 3.7746582 35.41796875 C2.38820225 35.80460005 1.00213034 36.19261125 -0.38354492 36.58203125 C-2.3757949 37.14166005 -4.369375 37.69630551 -6.36328125 38.25 C-7.56251221 38.58515625 -8.76174316 38.9203125 -9.99731445 39.265625 C-13 40 -13 40 -16 40 C-16.63615234 38.69675781 -16.63615234 38.69675781 -17.28515625 37.3671875 C-22.59087907 26.94231673 -27.71197567 20.88898365 -39 17 C-48.13840131 14.62068158 -57.83955794 16.00757098 -65.95703125 20.6953125 C-66.63121094 21.12585938 -67.30539062 21.55640625 -68 22 C-68.9075 22.556875 -69.815 23.11375 -70.75 23.6875 C-81.26917067 34.49886985 -83.35269801 49.51453287 -83.2109375 63.98828125 C-82.73173731 76.26113063 -79.09543538 88.72948099 -70.75 98 C-64.2201135 103.88407355 -55.64573214 106.10231636 -47 106 C-39.90628426 105.48542995 -34.31587943 104.25167571 -28.5234375 100.0234375 C-27 99 -27 99 -25 99 C-24.73445312 98.45859375 -24.46890625 97.9171875 -24.1953125 97.359375 C-22.80988695 94.62474418 -21.34741542 91.93875859 -19.875 89.25 C-19.33617187 88.26515625 -18.79734375 87.2803125 -18.2421875 86.265625 C-17.83226562 85.51796875 -17.42234375 84.7703125 -17 84 C-9.6553506 84.53898303 -2.66157219 85.81094996 4.5 87.5 C5.48742187 87.72558594 6.47484375 87.95117188 7.4921875 88.18359375 C14.70838648 89.85419324 14.70838648 89.85419324 17 91 C14.96609882 103.40679722 8.76333925 112.20654618 0 121 C-0.62648438 121.6496875 -1.25296875 122.299375 -1.8984375 122.96875 C-14.97226754 135.54610548 -34.28259677 138.51585507 -51.703125 138.21484375 C-71.09565344 137.505898 -87.51428598 130.29602449 -100.875 116.0625 C-116.89463153 97.26690344 -120.51422702 73.93470152 -119 50 C-117.62354023 34.98957874 -112.52372846 20.7479538 -103 9 C-102.38253906 8.22011719 -101.76507812 7.44023438 -101.12890625 6.63671875 C-76.49683076 -22.85238571 -28.64917542 -23.46503892 0 0 Z " fill="#212121" transform="translate(873,60)"/>
<path d="M0 0 C1.23169922 0.99966797 1.23169922 0.99966797 2.48828125 2.01953125 C3.19597656 2.55191406 3.90367188 3.08429688 4.6328125 3.6328125 C13.70864497 10.84693575 19.80057689 21.58408889 24.48828125 32.01953125 C14.4392973 37.99149885 4.32822707 43.85022984 -5.82421875 49.64453125 C-6.41369293 49.98105713 -7.00316711 50.31758301 -7.61050415 50.66430664 C-13.80228399 54.19857353 -19.99702219 57.72761454 -26.19496155 61.25106812 C-28.68343079 62.66622641 -31.17092423 64.08309459 -33.65829468 65.50018311 C-35.38295694 66.48181672 -37.10905307 67.46092982 -38.83520508 68.43994141 C-46.49926523 72.80614714 -54.02717224 77.354238 -61.51171875 82.01953125 C-52.64872663 87.85402176 -44.29081384 91.04336054 -33.484375 89.62109375 C-20.10990205 86.69488989 -12.45351909 79.68762126 -4.51171875 69.01953125 C0.65187565 70.78270982 5.11569818 73.67994451 9.73828125 76.51953125 C10.56585937 77.01839844 11.3934375 77.51726562 12.24609375 78.03125 C13.42558594 78.75248047 13.42558594 78.75248047 14.62890625 79.48828125 C15.34594727 79.92591797 16.06298828 80.36355469 16.80175781 80.81445312 C18.48828125 82.01953125 18.48828125 82.01953125 19.48828125 84.01953125 C9.24176032 100.65505935 -4.44941133 112.33464415 -23.66015625 117.09765625 C-28.72976853 118.1878449 -33.65179628 118.36521515 -38.82421875 118.33203125 C-39.74775146 118.3263916 -40.67128418 118.32075195 -41.62280273 118.31494141 C-57.40598541 118.03490602 -70.64707139 112.4372704 -82.51171875 102.01953125 C-83.18847656 101.436875 -83.86523438 100.85421875 -84.5625 100.25390625 C-96.03384138 89.65126839 -103.72821139 73.68967841 -104.51171875 58.01953125 C-104.56199219 57.22933594 -104.61226562 56.43914062 -104.6640625 55.625 C-105.33449692 37.30873158 -98.40035592 19.3300532 -85.94921875 5.89453125 C-62.56624251 -16.12896963 -25.89086644 -20.1956252 0 0 Z M-66.51171875 26.01953125 C-75.47228181 36.54906449 -77.03418835 45.41597088 -76.51171875 59.01953125 C-70.34170888 57.39693234 -65.24557217 54.07936407 -59.82421875 50.83203125 C-49.4224876 44.67623538 -38.91769348 38.7448338 -28.33520508 32.9074707 C-26.71521606 32.01354614 -26.71521606 32.01354614 -25.0625 31.1015625 C-24.11028564 30.57796143 -23.15807129 30.05436035 -22.17700195 29.51489258 C-19.59098121 28.06400158 -17.04614768 26.55846615 -14.51171875 25.01953125 C-15.22068722 21.81556688 -15.22068722 21.81556688 -18.09375 20.44921875 C-19.15980469 19.93617187 -20.22585938 19.423125 -21.32421875 18.89453125 C-22.38253906 18.37632813 -23.44085937 17.858125 -24.53125 17.32421875 C-38.89759647 11.03541178 -55.60068669 15.23202031 -66.51171875 26.01953125 Z " fill="#212020" transform="translate(1468.51171875,82.98046875)"/>
<path d="M0 0 C0 13.2 0 26.4 0 40 C14.19 40 28.38 40 43 40 C43 48.58 43 57.16 43 66 C28.81 66 14.62 66 0 66 C0.09094762 79.11051445 0.09094762 79.11051445 0.20898438 92.22070312 C0.263176 97.57297072 0.3142909 102.92513656 0.34643555 108.27758789 C0.37257095 112.59606297 0.41304463 116.91419361 0.46318626 121.2324543 C0.47978608 122.87450415 0.49134302 124.51661349 0.49761391 126.15873528 C0.53823882 135.82480013 0.64031591 144.27609377 5.6875 152.875 C12.57735946 159.20622221 21.22575913 158.36677119 30 158.1875 C34.29 158.125625 38.58 158.06375 43 158 C43 167.24 43 176.48 43 186 C22.96084498 189.33985917 -0.04885051 191.55076633 -17.85546875 179.6796875 C-26.7702836 172.69722778 -31.50550453 163.18461455 -33 152 C-33.0864973 149.13262727 -33.12669454 146.29087421 -33.11352539 143.42431641 C-33.11367142 142.58463318 -33.11381744 141.74494995 -33.1139679 140.87982178 C-33.11327445 138.12037521 -33.10550874 135.36099719 -33.09765625 132.6015625 C-33.09579005 130.68199704 -33.0943671 128.7624311 -33.09336853 126.84286499 C-33.08955925 121.8024564 -33.07974257 116.76207684 -33.06866455 111.72167969 C-33.05841623 106.5735717 -33.05386359 101.42545901 -33.04882812 96.27734375 C-33.03811883 86.18488106 -33.02053494 76.09244749 -33 66 C-41.58 66 -50.16 66 -59 66 C-59 57.42 -59 48.84 -59 40 C-50.42 40 -41.84 40 -33 40 C-33 31.75 -33 23.5 -33 15 C-24.91163743 10.9200295 -16.82080282 6.86023221 -8.625 3 C-7.98941162 2.69763428 -7.35382324 2.39526855 -6.69897461 2.08374023 C-2.23800101 0 -2.23800101 0 0 0 Z " fill="#212121" transform="translate(264,8)"/>
<path d="M0 0 C0 13.2 0 26.4 0 40 C13.86 40 27.72 40 42 40 C42 48.58 42 57.16 42 66 C28.14 66 14.28 66 0 66 C0.09089532 79.49039352 0.09089532 79.49039352 0.20898438 92.98046875 C0.26321153 98.48646438 0.31432528 103.99236033 0.34643555 109.49853516 C0.37253855 113.9401946 0.41298999 118.38151733 0.46318626 122.82296753 C0.4798078 124.51329342 0.49135133 126.20367748 0.49761391 127.89407349 C0.50730668 130.27088308 0.53542585 132.64684034 0.56762695 135.0234375 C0.56619186 135.71468216 0.56475677 136.40592682 0.5632782 137.11811829 C0.6670225 142.56994394 1.67921479 148.28119584 5.31007862 152.53475952 C10.38501793 157.06187767 15.63426327 158.2610469 22.2734375 158.1953125 C23.83457275 158.18781982 23.83457275 158.18781982 25.42724609 158.18017578 C27.38138428 158.15286377 27.38138428 158.15286377 29.375 158.125 C33.54125 158.08375 37.7075 158.0425 42 158 C42 167.24 42 176.48 42 186 C33.52340716 187.5411987 26.55013772 188.355836 18.125 188.3125 C16.97894287 188.30686035 15.83288574 188.3012207 14.65209961 188.29541016 C0.54850848 188.09259636 -11.88697389 185.5720449 -22.8125 175.9375 C-30.71074715 167.43023139 -33.16355719 156.55506415 -33.11352539 145.35424805 C-33.11367142 144.4952037 -33.11381744 143.63615936 -33.1139679 142.75108337 C-33.11327312 139.92126918 -33.10550111 137.0915214 -33.09765625 134.26171875 C-33.09579052 132.29588354 -33.09436735 130.33004787 -33.09336853 128.36421204 C-33.08955553 123.19720164 -33.07973562 118.03021948 -33.06866455 112.86322021 C-33.05842427 107.58785382 -33.0538653 102.31248285 -33.04882812 97.03710938 C-33.03811226 86.69139187 -33.02052531 76.3457027 -33 66 C-41.58 66 -50.16 66 -59 66 C-59 57.42 -59 48.84 -59 40 C-50.42 40 -41.84 40 -33 40 C-33 31.75 -33 23.5 -33 15 C-24.91163743 10.9200295 -16.82080282 6.86023221 -8.625 3 C-7.98941162 2.69763428 -7.35382324 2.39526855 -6.69897461 2.08374023 C-2.23800101 0 -2.23800101 0 0 0 Z " fill="#212121" transform="translate(950,8)"/>
<path d="M0 0 C50.49 0 100.98 0 153 0 C153 8.58 153 17.16 153 26 C132.21 26 111.42 26 90 26 C90 74.51 90 123.02 90 173 C81.09 173 72.18 173 63 173 C63 124.49 63 75.98 63 26 C42.21 26 21.42 26 0 26 C0 17.42 0 8.84 0 0 Z " fill="#212020" transform="translate(1243,26)"/>
<path d="M0 0 C0 10.23 0 20.46 0 31 C-2.743125 30.9175 -5.48625 30.835 -8.3125 30.75 C-19.52476658 30.63911721 -28.69647758 33.09708611 -37 41 C-48.70152221 53.8184857 -48.29928804 70.61834696 -48.4140625 87.015625 C-48.43281271 88.72484227 -48.45238885 90.43405065 -48.4727478 92.14324951 C-48.52366865 96.60152912 -48.56350633 101.0598386 -48.60089111 105.51824951 C-48.64829201 110.88919125 -48.70971514 116.25998942 -48.76873779 121.6308136 C-48.85646064 129.75381648 -48.9265743 137.87679872 -49 146 C-59.89 146 -70.78 146 -82 146 C-82 97.82 -82 49.64 -82 0 C-72.1 0 -62.2 0 -52 0 C-51.67 6.27 -51.34 12.54 -51 19 C-50.030625 17.80375 -49.06125 16.6075 -48.0625 15.375 C-36.59929548 2.34653864 -16.97996434 -4.24499108 0 0 Z " fill="#212121" transform="translate(1095,48)"/>
<path d="M0 0 C11.88 0 23.76 0 36 0 C35.29386502 3.53067491 34.67580747 6.11040835 33.35205078 9.33569336 C33.01229218 10.16966141 32.67253357 11.00362946 32.32247925 11.86286926 C31.95051422 12.76277084 31.57854919 13.66267242 31.1953125 14.58984375 C30.8045755 15.54505417 30.4138385 16.50026459 30.01126099 17.48442078 C28.72019503 20.63725228 27.42266812 23.78738076 26.125 26.9375 C25.21809059 29.14813779 24.31151976 31.35891451 23.40527344 33.56982422 C20.61055261 40.38278669 17.80664911 47.19194404 15 54 C14.5723938 55.03735291 14.1447876 56.07470581 13.70422363 57.14349365 C10.10001698 65.88526481 6.49151734 74.62525704 2.87646484 83.36254883 C-2.18950285 95.60702203 -7.22901498 107.86201923 -12.25 120.125 C-19.75381507 138.45017806 -27.36818488 156.72767342 -35 175 C-46.88 175 -58.76 175 -71 175 C-70.32438967 171.62194833 -69.79619176 169.18363392 -68.53564453 166.12329102 C-68.08603867 165.02241905 -68.08603867 165.02241905 -67.62734985 163.89930725 C-67.29915253 163.10882492 -66.9709552 162.31834259 -66.6328125 161.50390625 C-66.11356705 160.23824074 -66.11356705 160.23824074 -65.58383179 158.94700623 C-64.43519233 156.15037883 -63.28011874 153.35645673 -62.125 150.5625 C-61.31147668 148.5854396 -60.4983323 146.60822324 -59.68554688 144.63085938 C-57.12993649 138.41799212 -54.56545963 132.20880528 -52 126 C-51.19233197 124.04412907 -50.3847137 122.08823758 -49.57714844 120.13232422 C-46.42622809 112.50173192 -43.27436666 104.87153102 -40.11865234 97.24291992 C-34.628508 83.96737975 -29.17975628 70.67533961 -23.75 57.375 C-15.92617354 38.21053987 -7.98380414 19.09851187 0 0 Z " fill="#E72F3D" transform="translate(568,23)"/>
<path d="M0 0 C12.21 0 24.42 0 37 0 C30.11517168 18.3595422 30.11517168 18.3595422 27.2578125 25.16015625 C26.93280762 25.94069366 26.60780273 26.72123108 26.27294922 27.52542114 C25.58275725 29.18235208 24.89135948 30.83878124 24.1987915 32.49472046 C22.31402819 37.00179344 20.43899271 41.51291639 18.5625 46.0234375 C18.17901398 46.94454819 17.79552795 47.86565887 17.40042114 48.81468201 C13.60938385 57.9256496 9.86336644 67.05482269 6.125 76.1875 C-0.18427751 91.59594823 -6.53527818 106.9868584 -12.9017334 122.37176514 C-16.98209847 132.23392429 -21.05337452 142.09922853 -25.05859375 151.9921875 C-25.52234657 153.13739616 -25.52234657 153.13739616 -25.99546814 154.30574036 C-27.42027373 157.82697876 -28.84115398 161.34974171 -30.2565918 164.87475586 C-30.74168213 166.07753174 -31.22677246 167.28030762 -31.7265625 168.51953125 C-32.14502441 169.56214111 -32.56348633 170.60475098 -32.99462891 171.67895508 C-34 174 -34 174 -35 175 C-37.6662603 175.08855161 -40.30647114 175.11524673 -42.97265625 175.09765625 C-43.77029892 175.0962413 -44.56794159 175.09482635 -45.38975525 175.09336853 C-47.94737435 175.08775316 -50.50490718 175.07519812 -53.0625 175.0625 C-54.79231645 175.05748698 -56.52213426 175.05292373 -58.25195312 175.04882812 C-62.50133553 175.03777875 -66.75065312 175.02050386 -71 175 C-68.2783254 166.3063056 -64.81430226 157.92702741 -61.375 149.5 C-60.7094815 147.86379903 -60.04403722 146.22756788 -59.37866211 144.59130859 C-53.78425372 130.8520961 -48.10490144 117.14827808 -42.41186523 103.44970703 C-35.90193166 87.78393767 -29.45780817 72.0916457 -23.02870178 56.39256287 C-20.54976608 50.33978404 -18.06665667 44.28872649 -15.58203125 38.23828125 C-14.84968468 36.45459234 -14.11734412 34.67090096 -13.38500977 32.88720703 C-12.3313289 30.32085971 -11.27754645 27.75455445 -10.22335815 25.18841553 C-9.25786251 22.83802128 -8.29293686 20.48739375 -7.328125 18.13671875 C-7.04963211 17.45918045 -6.77113922 16.78164215 -6.48420715 16.08357239 C-4.28977908 10.73482595 -2.14743464 5.3685866 0 0 Z " fill="#E72F3D" transform="translate(514,23)"/>
<path d="M0 0 C0 64.02 0 128.04 0 194 C-10.89 194 -21.78 194 -33 194 C-33 134.93 -33 75.86 -33 15 C-14.5862069 5.79310345 -14.5862069 5.79310345 -8.625 3 C-7.99851562 2.70222656 -7.37203125 2.40445312 -6.7265625 2.09765625 C-2.24125144 0 -2.24125144 0 0 0 Z " fill="#212121" transform="translate(33,0)"/>
<path d="M0 0 C14.85 0 29.7 0 45 0 C45 11.88 45 23.76 45 36 C25.53 36 6.06 36 -14 36 C-13.11494397 31.57471985 -11.81554852 27.834824 -10.05859375 23.73046875 C-9.80404419 23.12609985 -9.54949463 22.52173096 -9.28723145 21.89904785 C-8.34244568 19.6596962 -7.38949764 17.42379526 -6.4375 15.1875 C-4.313125 10.175625 -2.18875 5.16375 0 0 Z " fill="#E72F3D" transform="translate(556,162)"/>
<path d="M0 0 C0.66 0 1.32 0 2 0 C2 25.41 2 50.82 2 77 C-6.91 77 -15.82 77 -25 77 C-25.23226726 71.59075353 -25.43025164 66.19936532 -25.54931641 60.7890625 C-25.59901113 58.95773164 -25.66679951 57.12678467 -25.75439453 55.296875 C-26.42696438 40.86431736 -23.7688534 32.40768502 -15 21 C-13.74620448 19.20446732 -12.49564055 17.40666848 -11.25 15.60546875 C-10.17212845 14.1288102 -9.08902464 12.65595254 -8 11.1875 C-6.89549345 9.68123875 -5.7913122 8.1747389 -4.6875 6.66796875 C-4.21699219 6.03141357 -3.74648437 5.3948584 -3.26171875 4.73901367 C-2.13556347 3.18684571 -1.06373089 1.59559634 0 0 Z " fill="#211F20" transform="translate(1647,122)"/>
</svg>
