<?xml version="1.0" encoding="UTF-8"?>
<svg xmlns="http://www.w3.org/2000/svg" xmlns:xlink="http://www.w3.org/1999/xlink" width="70px" height="70px" viewBox="0 0 70 70" version="1.1">
<g id="surface1">
<path style=" stroke:none;fill-rule:nonzero;fill:rgb(0%,0%,0%);fill-opacity:1;" d="M 66.40625 15.523438 L 56.882812 11.285156 L 26.820312 25.421875 L 26.820312 34.496094 L 21.574219 32.164062 L 21.574219 23.089844 L 51.640625 8.957031 L 41.542969 4.464844 C 40.1875 3.863281 37.976562 3.863281 36.625 4.464844 L 11.757812 15.523438 C 9.777344 16.402344 8.160156 18.898438 8.164062 21.066406 L 8.203125 37.449219 C 9.761719 36.945312 11.421875 36.667969 13.144531 36.667969 C 22.0625 36.667969 29.316406 43.925781 29.316406 52.839844 C 29.316406 55.167969 28.8125 57.378906 27.921875 59.382812 L 36.699219 63.136719 C 38.007812 63.695312 40.148438 63.695312 41.457031 63.136719 L 66.265625 52.535156 C 68.28125 51.671875 69.933594 49.175781 69.9375 46.984375 L 70 21.066406 C 70.003906 18.898438 68.386719 16.402344 66.40625 15.523438 Z M 56.808594 34.332031 L 60.175781 27.222656 C 60.515625 26.507812 61.371094 26.09375 61.710938 26.480469 L 65.167969 30.421875 C 65.511719 30.816406 65.074219 31.710938 64.382812 32.035156 L 62.925781 32.710938 L 62.898438 42.949219 C 62.894531 43.398438 62.5 43.929688 62.015625 44.140625 L 59.835938 45.078125 C 59.359375 45.285156 58.972656 45.09375 58.972656 44.652344 L 58.964844 34.546875 L 57.554688 35.199219 C 56.894531 35.507812 56.476562 35.027344 56.808594 34.332031 Z M 44.382812 40.140625 L 47.445312 33.382812 C 47.753906 32.703125 48.542969 32.316406 48.867188 32.695312 L 52.128906 36.519531 C 52.457031 36.898438 52.058594 37.75 51.417969 38.050781 L 50.070312 38.675781 L 50.15625 48.480469 C 50.160156 48.910156 49.796875 49.414062 49.347656 49.605469 L 47.328125 50.480469 C 46.882812 50.671875 46.523438 50.480469 46.515625 50.058594 L 46.398438 40.378906 L 45.089844 40.984375 C 44.476562 41.269531 44.085938 40.800781 44.382812 40.140625 Z M 66.789062 45.667969 C 66.785156 45.894531 66.582031 46.160156 66.335938 46.265625 L 43.261719 55.957031 C 43.042969 56.050781 42.867188 55.953125 42.863281 55.746094 L 42.847656 54.617188 C 42.84375 54.410156 43.015625 54.167969 43.230469 54.074219 L 66.347656 44.226562 C 66.597656 44.121094 66.796875 44.21875 66.796875 44.445312 Z M 13.144531 39.695312 C 5.886719 39.695312 0 45.582031 0 52.839844 C 0 60.101562 5.886719 65.984375 13.144531 65.984375 C 20.40625 65.984375 26.289062 60.101562 26.289062 52.839844 C 26.289062 45.582031 20.40625 39.695312 13.144531 39.695312 Z M 21.734375 50.140625 L 13.644531 59.242188 C 13.246094 59.6875 12.691406 59.917969 12.132812 59.917969 C 11.6875 59.917969 11.242188 59.773438 10.871094 59.476562 L 5.816406 55.429688 C 4.941406 54.734375 4.800781 53.460938 5.5 52.589844 C 6.195312 51.714844 7.46875 51.574219 8.339844 52.273438 L 11.898438 55.117188 L 18.710938 47.453125 C 19.453125 46.617188 20.730469 46.542969 21.566406 47.285156 C 22.402344 48.027344 22.476562 49.304688 21.734375 50.140625 Z M 21.734375 50.140625 "/>
</g>
</svg>
