<!DOCTYPE svg PUBLIC "-//W3C//DTD SVG 1.1//EN" "http://www.w3.org/Graphics/SVG/1.1/DTD/svg11.dtd">
<!-- Uploaded to: SVG Repo, www.svgrepo.com, Transformed by: SVG Repo Mixer Tools -->
<svg fill="#000000" height="800px" width="800px" version="1.1" id="Layer_1" xmlns="http://www.w3.org/2000/svg" xmlns:xlink="http://www.w3.org/1999/xlink" viewBox="0 0 512 512" xml:space="preserve">
<g id="SVGRepo_bgCarrier" stroke-width="0"/>
<g id="SVGRepo_tracerCarrier" stroke-linecap="round" stroke-linejoin="round"/>
<g id="SVGRepo_iconCarrier"> <g> <g> <g> <path d="M472.178,34.62H39.822C17.829,34.62,0,52.449,0,74.442v45.263c0,3.141,2.547,5.689,5.689,5.689h500.622 c3.141,0,5.689-2.547,5.689-5.689V74.442C512,52.449,494.171,34.62,472.178,34.62z M71.805,92.844 c-7.09,0-12.836-5.747-12.836-12.836s5.747-12.836,12.836-12.836c7.089,0,12.836,5.747,12.836,12.836 C84.642,87.097,78.895,92.844,71.805,92.844z M112.957,92.844c-7.09,0-12.836-5.747-12.836-12.836s5.747-12.836,12.836-12.836 s12.836,5.747,12.836,12.836C125.793,87.097,120.046,92.844,112.957,92.844z M154.109,92.844 c-7.089,0-12.836-5.747-12.836-12.836s5.747-12.836,12.836-12.836c7.09,0,12.836,5.747,12.836,12.836 C166.945,87.097,161.198,92.844,154.109,92.844z"/> <path d="M353.279,286.884c-7.201,7.2-7.201,18.916,0,26.115c7.2,7.201,18.916,7.201,26.115,0c7.201-7.2,7.201-18.914,0-26.115 C372.196,279.684,360.479,279.683,353.279,286.884z"/> <path d="M506.311,148.15H5.689c-3.143,0-5.689,2.547-5.689,5.689v283.719c0,21.993,17.829,39.822,39.822,39.822h432.356 c21.993,0,39.822-17.829,39.822-39.822V153.839C512,150.697,509.453,148.15,506.311,148.15z M300.161,366.791H90.192 c-6.284,0-11.378-5.094-11.378-11.378c0-6.284,5.094-11.378,11.378-11.378h209.969c6.284,0,11.378,5.094,11.378,11.378 C311.538,361.697,306.443,366.791,300.161,366.791z M429.854,363.459c-4.443,4.443-11.647,4.444-16.09,0l-27.461-27.46 c-15.8,8.74-35.914,6.293-49.114-6.907c-16.072-16.073-16.072-42.225,0-58.297c16.073-16.072,42.224-16.072,58.297,0 c13.281,13.282,15.576,33.442,6.907,49.114l27.46,27.46C434.297,351.811,434.297,359.014,429.854,363.459z"/> </g> </g> </g> </g>
</svg>