<?xml version="1.0" encoding="iso-8859-1"?>
<!-- Uploaded to: SVG Repo, www.svgrepo.com, Generator: SVG Repo Mixer Tools -->
<svg fill="#000000" height="800px" width="800px" version="1.1" id="Layer_1" xmlns="http://www.w3.org/2000/svg" xmlns:xlink="http://www.w3.org/1999/xlink" 
	 viewBox="0 0 511.998 511.998" xml:space="preserve">
<g>
	<g>
		<path d="M271.202,0.002C138.214,0.002,30.405,107.81,30.405,240.8c0,20.227,2.507,39.867,7.205,58.639l123.426-123.425
			c6.881-6.883,15.556-11.573,25.082-13.561l131.961-27.544c15.485-3.23,32.791,0.893,45.454,13.557
			c11.941,11.939,17.009,28.936,13.558,45.464l-27.544,131.962c-1.99,9.525-6.677,18.195-13.556,25.073L212.563,474.391
			c18.771,4.698,38.411,7.205,58.639,7.205c132.988,0,240.796-107.808,240.796-240.796S404.19,0.002,271.202,0.002z"/>
	</g>
</g>
<g>
	<g>
		<path d="M340.021,171.979c-4.041-4.04-9.819-5.633-15.153-4.519c-6.974,1.455-125.372,26.169-131.955,27.544
			c-3.167,0.661-6.073,2.231-8.36,4.519c-7.58,7.58-172.462,172.461-179.683,179.682c-6.492,6.491-6.493,17.021,0,23.513
			c4.209,4.209,100.038,100.038,104.413,104.414c6.462,6.461,17.005,6.508,23.513,0c9.369-9.369,171.901-171.901,179.683-179.683
			c2.287-2.287,3.857-5.193,4.519-8.36l27.542-131.956C345.687,181.643,343.988,175.945,340.021,171.979z M286.669,301.641
			l-76.308-76.309c8.032-1.676,67.081-14.002,74.893-15.632c1.419,1.419,15.029,15.029,17.048,17.048
			C299.916,238.175,288.66,292.107,286.669,301.641z"/>
	</g>
</g>
</svg>